<?xml version="1.0" standalone="no"?>
<!DOCTYPE svg PUBLIC "-//W3C//DTD SVG 20010904//EN"
 "http://www.w3.org/TR/2001/REC-SVG-20010904/DTD/svg10.dtd">
<svg version="1.0" xmlns="http://www.w3.org/2000/svg"
 width="700.000000pt" height="700.000000pt" viewBox="0 0 700.000000 700.000000"
 preserveAspectRatio="xMidYMid meet">
<metadata>
Created by potrace 1.11, written by Peter Selinger 2001-2013
</metadata>
<g transform="translate(0.000000,700.000000) scale(0.100000,-0.100000)"
fill="#000000" stroke="none">
<path d="M1821 6336 c-12 -18 -21 -38 -21 -45 0 -6 -4 -11 -10 -11 -5 0 -10
-4 -10 -9 0 -12 -83 -155 -92 -159 -5 -2 -8 -8 -8 -13 0 -5 -32 -64 -71 -132
-40 -67 -81 -138 -92 -157 -11 -19 -61 -107 -112 -195 -51 -88 -106 -185 -124
-215 -17 -30 -36 -62 -41 -70 -6 -8 -14 -24 -19 -35 -5 -11 -21 -37 -35 -58
-14 -21 -26 -40 -26 -42 0 -3 -65 -117 -145 -254 -80 -138 -188 -326 -241
-418 -54 -92 -137 -238 -187 -323 -49 -85 -98 -171 -109 -190 -12 -19 -29 -51
-40 -70 -11 -19 -73 -127 -138 -240 -118 -204 -118 -204 -101 -230 10 -14 38
-61 63 -105 25 -44 55 -96 66 -115 10 -19 43 -75 72 -125 29 -49 64 -110 78
-135 14 -25 45 -78 69 -118 24 -41 43 -75 43 -77 0 -2 28 -50 61 -107 57 -94
305 -525 352 -608 10 -19 34 -60 52 -90 41 -69 206 -354 235 -406 12 -21 37
-64 55 -94 18 -30 44 -75 57 -100 14 -25 107 -187 208 -360 100 -173 193 -334
207 -357 l24 -43 1659 0 1658 0 63 108 c110 191 171 296 196 342 14 25 29 50
33 55 5 6 19 30 33 55 13 25 57 101 97 170 40 69 123 213 185 320 62 107 213
368 335 580 298 514 320 553 370 640 24 41 90 155 146 253 57 98 104 181 104
184 0 4 6 14 14 22 8 9 26 40 41 69 15 29 31 55 36 58 9 5 -1 26 -101 199 -32
55 -67 116 -78 135 -10 19 -117 204 -237 410 -119 206 -227 393 -240 415 -45
81 -63 112 -112 195 -28 47 -60 102 -72 123 -43 76 -61 108 -208 362 -295 508
-464 801 -503 870 -11 20 -39 67 -62 105 l-41 70 -1658 0 -1657 0 -21 -34z"/>
</g>
</svg>
