<svg xmlns="http://www.w3.org/2000/svg" width="249.96" height="249.96" viewBox="0 0 2083 2083">
  <defs>
    <style>
      .cls-1 {
        fill: #61892f;
        stroke-width: 51.08px;
      }

      .cls-1, .cls-2 {
        stroke: #000;
        fill-rule: evenodd;
      }

      .cls-2 {
        fill: #fff;
        stroke-width: 10.14px;
      }
    </style>
  </defs>
  <path class="cls-1" d="M562.765,1870.02L84.021,1041.5,562.765,212.983H1520.23L1998.98,1041.5l-478.75,828.52H562.765Z"/>
  <path class="cls-2" d="M1144.65,1158.66s16.44-600.418,287.7-690.931C1276.14,722.7,1235.07,862.524,1144.65,1158.66Zm178.04-90.04c-51.15,123.06-128.68,291.08-175.13,526.26C1147.56,1594.88,1072.62,1235.64,1322.69,1068.62ZM889.345,359.762C1271.96,1052.62,1029.29,1474.88,954.457,1623.29,954.457,1623.29,1101.48,1140.52,889.345,359.762ZM649.473,587.137C987.327,1013.31,868.527,1258.9,868.527,1258.9,834.916,1018.47,734.137,775.232,649.473,587.137Zm231.9,939.663-25.315,199.86c-41.8-184.37,14.059-480.42-319.78-835.057C922.745,1165.85,881.369,1526.8,881.369,1526.8Zm493.541-224.81c31.49-25.51-45.93,144-152.62,301.74C1222.29,1603.73,1217.47,1359.04,1374.91,1301.99Z"/>
</svg>
